<?xml version="1.0" encoding="utf-8"?>
<!-- Generator: Adobe Illustrator 18.0.0, SVG Export Plug-In . SVG Version: 6.00 Build 0)  -->
<!DOCTYPE svg PUBLIC "-//W3C//DTD SVG 1.1//EN" "http://www.w3.org/Graphics/SVG/1.1/DTD/svg11.dtd">
<svg version="1.1" xmlns="http://www.w3.org/2000/svg" width="200px" xmlns:xlink="http://www.w3.org/1999/xlink" x="0px" y="0px"
	 viewBox="181.3 9 263.8 43.6" enable-background="new 181.3 9 263.8 43.6" xml:space="preserve">
<g id="Layer_2">
</g>
<g id="Layer_1">
	<g>
		<g>
			<defs>
				<path id="SVGID_1_" d="M200.4,45.6c-0.8-0.3-1.5-0.8-2.1-1.4c-0.3-0.3-0.7-0.7-0.9-1.2c0.4-0.1,0.8-0.3,1.2-0.4
					c1.5-0.6,2.8-1.5,3.9-2.7c1.1-1.1,2-2.5,2.6-4c0.3-0.8,0.6-1.7,0.7-2.6c0.7,0.3,1.3,0.8,1.9,1.3c0.6,0.6,1.1,1.3,1.4,2.1
					c0.3,0.8,0.5,1.7,0.5,2.6v6.7H203C202.1,46.1,201.2,45.9,200.4,45.6 M196.8,36.8c0.3-0.8,0.8-1.5,1.4-2.1
					c0.6-0.6,1.3-1.1,2.1-1.4c0.1-0.1,0.3-0.1,0.5-0.2c-0.1,0.3-0.2,0.7-0.3,1c-0.4,0.9-0.9,1.7-1.6,2.4c-0.7,0.7-1.5,1.2-2.4,1.6
					c-0.1,0-0.1,0-0.2,0.1C196.5,37.7,196.6,37.2,196.8,36.8 M211.2,47.6v-8.2c0-1.1-0.2-2.2-0.6-3.2c-0.4-1-1-1.9-1.8-2.6
					c-0.7-0.7-1.6-1.3-2.6-1.8c-0.1,0-0.1-0.1-0.2-0.1c0-0.2,0-0.4,0-0.6v-2.9c0.5,0.1,1,0.3,1.5,0.5c1.4,0.6,2.6,1.4,3.7,2.5
					c1,1,1.9,2.3,2.5,3.7s0.9,2.9,0.9,4.5V51H203c-1.6,0-3.1-0.3-4.5-0.9c-1.4-0.6-2.7-1.4-3.7-2.5c-1.1-1.1-1.9-2.3-2.5-3.7
					c-0.1-0.1-0.1-0.3-0.2-0.4c0.5,0.1,1,0.1,1.6,0.1c0.7,0,1.4-0.1,2-0.2c0.4,0.7,0.8,1.3,1.4,1.9c0.7,0.7,1.6,1.3,2.7,1.8
					c1,0.4,2.1,0.6,3.2,0.6H211.2z M191.4,38.3c0.1-1.2,0.4-2.3,0.8-3.4c0.6-1.4,1.4-2.6,2.5-3.7c1.1-1,2.3-1.9,3.7-2.5
					c0.8-0.3,1.7-0.6,2.6-0.7v3.1c0,0.1,0,0.2,0,0.3c-0.5,0.1-0.9,0.2-1.3,0.4c-1,0.4-1.9,1-2.7,1.8c-0.7,0.7-1.3,1.6-1.8,2.6
					c-0.3,0.7-0.5,1.5-0.6,2.3c-0.3,0.1-0.7,0.1-1.1,0.1C192.9,38.6,192.1,38.5,191.4,38.3 M188.4,36.5c-0.7-0.7-1.2-1.5-1.6-2.4
					c-0.4-0.9-0.6-1.9-0.6-2.9s0.2-2,0.6-2.9c0.4-0.9,0.9-1.7,1.6-2.4c0.7-0.7,1.5-1.2,2.4-1.6c0.9-0.4,1.9-0.6,2.9-0.6h7.4v2.7
					c-1.1,0.1-2.2,0.5-3.2,0.9c-1.6,0.7-3,1.6-4.2,2.8c-1.2,1.2-2.2,2.6-2.8,4.2c-0.5,1.1-0.7,2.2-0.9,3.4
					C189.4,37.3,188.8,36.9,188.4,36.5 M201.1,9v9.9h-7.4c-1.7,0-3.3,0.3-4.8,1c-1.5,0.6-2.8,1.5-4,2.6c-1.1,1.1-2,2.4-2.7,3.9
					c-0.7,1.5-1,3.1-1,4.8c0,1.7,0.3,3.3,1,4.8c0.6,1.5,1.5,2.8,2.7,4c1.1,1.1,2.5,2,4,2.7c0.5,0.2,1,0.4,1.4,0.5
					c0.1,0.5,0.3,1,0.5,1.4c0.7,1.6,1.6,3,2.8,4.2c1.2,1.2,2.6,2.2,4.2,2.8c1.6,0.7,3.3,1,5.1,1H216V39.4c0-1.8-0.3-3.5-1-5.1
					c-0.7-1.6-1.6-3-2.8-4.2c-1.2-1.2-2.6-2.1-4.2-2.8c-0.7-0.3-1.4-0.5-2.1-0.7V9H201.1z"/>
			</defs>
			<clipPath id="SVGID_2_">
				<use xlink:href="#SVGID_1_"  overflow="visible"/>
			</clipPath>
			
				<linearGradient id="SVGID_3_" gradientUnits="userSpaceOnUse" x1="152.008" y1="38.301" x2="153.7383" y2="38.301" gradientTransform="matrix(17.6878 17.6878 17.6878 -17.6878 -3178.5029 -1991.5142)">
				<stop  offset="0" style="stop-color:#26A9E0"/>
				<stop  offset="1" style="stop-color:#1B75BB"/>
			</linearGradient>
			<polygon clip-path="url(#SVGID_2_)" fill="url(#SVGID_3_)" points="159.5,30.8 198.7,69.9 237.8,30.8 198.7,-8.4 			"/>
		</g>
	</g>
	<g>
		<g>
			<path fill="#FFFFFF" d="M249.2,19.1h1.5V49h-1.5v-4.9c-1.1,1.8-2.8,3.1-4.8,4c-1.5,0.6-2.8,0.9-3.8,0.9h-0.4
				c-2.4,0-4.5-0.5-6.1-1.5c-2.1-1.1-3.7-3-4.6-5.5c-0.4-1.7-0.7-3-0.7-4c0-1.3,0.3-2.8,1-4.7c1.3-2.6,3.2-4.5,5.9-5.4
				c1.3-0.5,2.6-0.8,3.6-0.8h0.4c4,0,7.1,1.5,9.4,4.6l0.1,0.4h0.1L249.2,19.1L249.2,19.1z M230.5,37.6V38l-0.1,0.1l0.1,0.1v0.3
				c0,3.9,1.9,6.7,5.6,8.4c1.2,0.4,2.4,0.6,3.7,0.6c3.5,0,6.1-1.4,8-4.3c0.9-1.6,1.3-3.3,1.3-5c0-2.2-0.7-4.2-2.1-6.1
				c-1-1.1-1.9-1.8-2.9-2.2c-1.5-0.6-2.9-1-4.3-1c-2.5,0-4.7,0.9-6.6,2.5c-1.2,1.3-2,2.5-2.3,3.7C230.6,36,230.5,36.8,230.5,37.6"/>
		</g>
		<g>
			<path fill="#FFFFFF" d="M258,22.7h-1.5v-3.6h1.5V22.7z M258,49h-1.6V27.1h1.6V49z"/>
		</g>
		<g>
			<path fill="#FFFFFF" d="M274.4,27.2c2.1,0,4.2,0.5,6.3,1.6c2.1,1.3,3.6,3,4.4,5.4c0.4,1.2,0.6,2.4,0.6,3.5v0.9
				c0,2.2-0.7,4.2-2,6.2c-1.3,1.5-2.4,2.4-3.1,2.7c-1.5,0.9-2.7,1.3-3.6,1.3c0,0.1-0.9,0.2-2.8,0.2H274c-2,0-3.9-0.7-6-2
				c-2.9-2.2-4.4-5.2-4.4-9.1c0-2.1,0.6-4.1,1.8-6.2C267.6,28.9,270.5,27.3,274.4,27.2 M265.3,38.2c0,2.3,0.7,4.4,2.2,6.2
				c0.9,1.1,2.2,1.9,3.8,2.5c1.3,0.4,2.4,0.6,3.2,0.6h0.4c1.9,0,3.9-0.7,5.9-2c1.2-1.1,2-2.1,2.3-2.9c0.6-1.5,1-3,1-4.5
				c0-1.3-0.4-2.8-1.1-4.4c-1.1-2-2.7-3.3-4.8-4.1c-1-0.4-2.2-0.6-3.5-0.7c-1.6,0-3.2,0.4-5,1.3c-1.7,1.1-3,2.5-3.7,4.3
				C265.7,35.3,265.4,36.5,265.3,38.2"/>
		</g>
		<g>
			<path fill="#FFFFFF" d="M292.9,32c0.4-0.7,1.1-1.4,1.9-2.2c1.4-1.1,2.2-1.6,2.5-1.6c1.5-0.7,3.4-1.1,5.6-1.1
				c2.2,0.2,4.3,0.9,6.1,2.1c1.9,1.4,3.2,3.4,4,5.9c0.2,0.7,0.3,1.8,0.3,3.4v10.5h-1.6V38.3c0-4.4-2-7.4-6.1-9
				c-0.6-0.2-1.7-0.4-3.3-0.6c-1.4,0-3,0.4-4.7,1.1c-1,0.6-1.7,1.1-2,1.5c-1.1,1.1-1.9,2.5-2.4,4.3c-0.2,1.1-0.3,2.4-0.3,3.8V49
				h-1.6V27h1.6L292.9,32L292.9,32z"/>
		</g>
		<g>
			<path fill="#FFFFFF" d="M343.6,27.2c4.4,0,7.7,1.7,9.8,5v-5h1.5V49h-1.5v-4.9c-1.3,2.1-3.3,3.5-6.1,4.5c-1,0.3-1.8,0.4-2.4,0.4
				h-0.6c-2.7,0-5-0.7-6.8-2c-1.8-1.3-3.1-3-3.9-5.3c-0.4-1.4-0.6-2.7-0.6-3.8c0-1.7,0.4-3.5,1.4-5.5c1.5-2.5,3.6-4.1,6.4-5
				C342.2,27.3,343.1,27.2,343.6,27.2 M334.7,37.8v0.1l-0.1,0.1l0.1,0.1v0.3c0,3.5,1.5,6.1,4.7,7.9c1.5,0.7,3,1.1,4.4,1.1h0.4
				c2.8,0,5.2-1.1,7.2-3.3c1.3-1.8,1.9-3.9,1.9-6c0-2.9-1.1-5.3-3.4-7.2c-1.9-1.3-3.8-2-5.8-2h-0.4c-2.3,0-4.4,0.9-6.5,2.6
				C335.6,33.3,334.7,35.4,334.7,37.8"/>
		</g>
		<g>
			<path fill="#FFFFFF" d="M362.3,27.1v9.3c0,3.2,0.4,5.3,1.3,6.5c0.9,1.7,2.4,3,4.5,3.8c1.3,0.4,2.4,0.7,3.4,0.7h0.6
				c1.9,0,3.8-0.7,5.8-2c2.2-1.9,3.3-4.4,3.3-7.6V27h1.5v22h-1.5v-4.9c-1.3,2.1-3.3,3.5-5.9,4.4c-0.9,0.3-1.9,0.5-2.7,0.5h-0.4
				c-3.8,0-6.7-1.2-8.7-3.5c-1.1-1-2-2.7-2.5-5c-0.2-1.2-0.3-2-0.3-2.6V27.1H362.3z"/>
		</g>
		<g>
			<path fill="#FFFFFF" d="M408.8,19.1h1.5V49h-1.5v-4.9c-1.1,1.8-2.8,3.1-4.8,4c-1.5,0.6-2.8,0.9-3.8,0.9h-0.4
				c-2.4,0-4.5-0.5-6.1-1.5c-2.1-1.1-3.7-3-4.6-5.5c-0.4-1.7-0.7-3-0.7-4c0-1.3,0.3-2.8,1-4.7c1.3-2.6,3.2-4.5,5.9-5.4
				c1.3-0.5,2.6-0.8,3.6-0.8h0.4c4,0,7.1,1.5,9.4,4.6l0.1,0.4h0.1L408.8,19.1L408.8,19.1z M390.1,37.6V38l-0.1,0.1l0.1,0.1v0.3
				c0,3.9,1.9,6.7,5.6,8.4c1.2,0.4,2.4,0.6,3.7,0.6c3.5,0,6.1-1.4,8-4.3c0.9-1.6,1.3-3.3,1.3-5c0-2.2-0.7-4.2-2.1-6.1
				c-1-1.1-1.9-1.8-2.9-2.2c-1.5-0.6-2.9-1-4.3-1c-2.5,0-4.7,0.9-6.6,2.5c-1.2,1.3-2,2.5-2.3,3.7C390.2,36,390.1,36.8,390.1,37.6"/>
		</g>
		<g>
			<path fill="#FFFFFF" d="M417.5,22.7H416v-3.6h1.5V22.7z M417.5,49h-1.6V27.1h1.6V49z"/>
		</g>
		<g>
			<path fill="#FFFFFF" d="M433.9,27.2c2.1,0,4.2,0.5,6.3,1.6c2.1,1.3,3.6,3,4.4,5.4c0.4,1.2,0.6,2.4,0.6,3.5v0.9
				c0,2.2-0.6,4.2-1.9,6.2c-1.3,1.5-2.4,2.4-3.1,2.7c-1.5,0.9-2.7,1.3-3.6,1.3c0,0.1-0.9,0.2-2.8,0.2h-0.1c-1.9,0-3.9-0.7-6-2
				c-2.9-2.2-4.4-5.2-4.4-9.1c0-2.1,0.6-4.1,1.8-6.2C427.1,28.9,430.1,27.3,433.9,27.2 M424.8,38.2c0,2.3,0.7,4.4,2.2,6.2
				c0.9,1.1,2.2,1.9,3.8,2.5c1.3,0.4,2.4,0.6,3.2,0.6h0.4c1.9,0,3.9-0.7,5.9-2c1.2-1.1,1.9-2.1,2.3-2.9c0.6-1.5,1-3,1-4.5
				c0-1.3-0.4-2.8-1.1-4.4c-1.1-2-2.7-3.3-4.8-4.1c-1-0.4-2.2-0.6-3.5-0.7c-1.6,0-3.2,0.4-5,1.3c-1.7,1.1-3,2.5-3.7,4.3
				C425.2,35.3,425,36.5,424.8,38.2"/>
		</g>
		<g>
			<rect x="256.4" y="19.1" fill="#26A9E0" width="1.5" height="3.6"/>
		</g>
		<g>
			<rect x="416" y="19.1" fill="#26A9E0" width="1.5" height="3.6"/>
		</g>
	</g>
</g>
</svg>
